HIERARCHY
ROOT Hips
{
	OFFSET 0.000000 0.000000 0.000000
	CHANNELS 6 Xposition Yposition Zposition Xrotation Yrotation Zrotation
	JOINT LeftUpLeg_virtual
	{
		OFFSET 0.000000 0.000000 0.000000
		CHANNELS 3 Xrotation Yrotation Zrotation
		JOINT LeftUpLeg
		{
			OFFSET 15.427100 -6.655098 0.678600
			CHANNELS 3 Xrotation Yrotation Zrotation
			JOINT LeftLeg
			{
				OFFSET 4.081073 -39.591068 13.024000
				CHANNELS 3 Xrotation Yrotation Zrotation
				JOINT LeftFoot
				{
					OFFSET -4.081074 -37.707932 -15.979700
					CHANNELS 3 Xrotation Yrotation Zrotation
					JOINT LeftToeBase
					{
						OFFSET 5.346399 -15.068900 20.645000
						CHANNELS 3 Xrotation Yrotation Zrotation
						JOINT LeftToe_End
						{
							OFFSET 2.754700 0.931300 11.300900
							CHANNELS 3 Xrotation Yrotation Zrotation
							End Site
							{
								OFFSET 0 0 0
							}
						}
					}
				}
			}
		}
	}
	JOINT RightUpLeg_virtual
	{
		OFFSET 0.000000 0.000000 0.000000
		CHANNELS 3 Xrotation Yrotation Zrotation
		JOINT RightUpLeg
		{
			OFFSET -15.569500 -6.655098 0.678600
			CHANNELS 3 Xrotation Yrotation Zrotation
			JOINT RightLeg
			{
				OFFSET -4.081825 -39.591045 13.023800
				CHANNELS 3 Xrotation Yrotation Zrotation
				JOINT RightFoot
				{
					OFFSET 4.081824 -37.707954 -15.979600
					CHANNELS 3 Xrotation Yrotation Zrotation
					JOINT RightToeBase
					{
						OFFSET -5.346400 -15.068900 20.645000
						CHANNELS 3 Xrotation Yrotation Zrotation
						JOINT RightToe_End
						{
							OFFSET -2.754700 0.931300 11.300900
							CHANNELS 3 Xrotation Yrotation Zrotation
							End Site
							{
								OFFSET 0 0 0
							}
						}
					}
				}
			}
		}
	}
	JOINT Spine_virtual
	{
		OFFSET 0.000000 0.000000 0.000000
		CHANNELS 3 Xrotation Yrotation Zrotation
		JOINT Spine
		{
			OFFSET -0.279200 12.230698 -2.892100
			CHANNELS 3 Xrotation Yrotation Zrotation
			JOINT Spine1
			{
				OFFSET -0.232667 10.192268 -1.242267
				CHANNELS 3 Xrotation Yrotation Zrotation
				JOINT Spine1_split
				{
					OFFSET -0.232667 10.192268 -1.242267
					CHANNELS 3 Xrotation Yrotation Zrotation
					JOINT Spine2
					{
						OFFSET -0.232667 10.192268 -1.242267
						CHANNELS 3 Xrotation Yrotation Zrotation
						JOINT Neck_virtual
						{
							OFFSET 0.000000 0.000000 0.000000
							CHANNELS 3 Xrotation Yrotation Zrotation
							JOINT Neck
							{
								OFFSET -0.418800 17.814194 8.416900
								CHANNELS 3 Xrotation Yrotation Zrotation
								JOINT Head
								{
									OFFSET 0.000000 7.031097 3.806800
									CHANNELS 3 Xrotation Yrotation Zrotation
									JOINT HeadTop_End
									{
										OFFSET 0.000000 24.646606 12.978600
										CHANNELS 3 Xrotation Yrotation Zrotation
										End Site
										{
											OFFSET 0 0 0
										}
									}
								}
							}
						}
						JOINT LeftShoulder_virtual
						{
							OFFSET 0.000000 0.000000 0.000000
							CHANNELS 3 Xrotation Yrotation Zrotation
							JOINT LeftShoulder
							{
								OFFSET 8.476499 7.247704 -3.868750
								CHANNELS 3 Xrotation Yrotation Zrotation
								JOINT LeftShoulder_split
								{
									OFFSET 8.476499 7.247704 -3.868750
									CHANNELS 3 Xrotation Yrotation Zrotation
									JOINT LeftArm
									{
										OFFSET 9.308998 -2.777710 0.208600
										CHANNELS 3 Xrotation Yrotation Zrotation
										JOINT LeftForeArm
										{
											OFFSET 29.972298 0.000000 0.000000
											CHANNELS 3 Xrotation Yrotation Zrotation
											JOINT LeftHand
											{
												OFFSET 26.026505 0.000000 0.000000
												CHANNELS 3 Xrotation Yrotation Zrotation
												End Site
												{
													OFFSET 0 0 0
												}
											}
										}
									}
								}
							}
						}
						JOINT RightShoulder_virtual
						{
							OFFSET 0.000000 0.000000 0.000000
							CHANNELS 3 Xrotation Yrotation Zrotation
							JOINT RightShoulder
							{
								OFFSET -7.570500 7.247704 -3.868750
								CHANNELS 3 Xrotation Yrotation Zrotation
								JOINT RightShoulder_split
								{
									OFFSET -7.570500 7.247704 -3.868750
									CHANNELS 3 Xrotation Yrotation Zrotation
									JOINT RightArm
									{
										OFFSET -9.308998 -2.777710 0.208500
										CHANNELS 3 Xrotation Yrotation Zrotation
										JOINT RightForeArm
										{
											OFFSET -29.972300 0.000000 0.000000
											CHANNELS 3 Xrotation Yrotation Zrotation
											JOINT RightHand
											{
												OFFSET -26.026505 0.000000 0.000000
												CHANNELS 3 Xrotation Yrotation Zrotation
												End Site
												{
													OFFSET 0 0 0
												}
											}
										}
									}
								}
							}
						}
					}
				}
			}
		}
	}
}
MOTION
Frames: 8
Frame Time: 0.03333333
-17.523540 14.155258 -64.672501 0.000000 0.000000 0.000000 -87.041363 25.712227 6.608805 -66.637504 3.829514 37.790542 66.335241 12.624910 -1.434168 29.383279 5.356793 -8.217090 0.139580 -0.000014 -0.000004 0.000000 0.000000 0.000000 -87.041363 25.712227 6.608805 -42.007624 13.945155 -48.966012 101.151174 11.865325 13.832422 29.039031 4.617097 27.981528 -0.000012 0.000000 0.000007 0.000000 0.000000 0.000000 -87.041363 25.712227 6.608805 54.339021 10.454871 -4.188491 20.535753 3.211057 0.186197 0.000000 0.000000 0.000000 0.000000 0.000000 0.000000 20.612230 2.862306 0.333966 6.354677 0.273872 -2.216745 32.669211 -1.249311 -2.725193 0.000000 0.000000 0.000000 20.612230 2.862306 0.333966 0.690090 -7.698573 -13.129604 0.000000 0.000000 0.000000 -23.121920 -24.042647 -24.824218 0.000009 -63.058806 0.000017 0.000000 0.000000 0.000000 20.612230 2.862306 0.333966 0.136772 13.961785 14.788466 0.000000 0.000000 0.000000 -26.720446 -13.516585 33.282115 0.000003 41.763055 -0.000006 0.000000 0.000000 0.000000 
-17.895241 14.152992 -67.733704 0.000000 0.000000 0.000000 -96.028205 24.569271 7.476629 -58.810367 2.305321 37.274525 61.629712 11.294184 1.134708 33.733396 3.977084 -4.357781 0.306002 0.000029 -0.000025 0.000000 0.000000 0.000000 -96.028205 24.569271 7.476629 -32.218293 12.251478 -41.597030 98.929894 9.849818 7.812436 23.852187 1.255501 30.247824 -0.000007 0.000001 -0.000007 0.000000 0.000000 0.000000 -96.028205 24.569271 7.476629 54.136523 12.339944 -2.495789 21.302508 3.531567 0.486722 0.000000 0.000000 0.000000 0.000000 0.000000 0.000000 21.413456 3.045616 0.639502 5.772042 0.276188 -2.724580 26.591368 -2.420398 -3.858302 0.000000 0.000000 0.000000 21.413456 3.045616 0.639502 0.618663 -7.705188 -13.035390 0.000000 0.000000 0.000000 -16.051262 -24.091785 -18.542263 -0.000040 -64.438921 -0.000037 0.000000 0.000000 0.000000 21.413456 3.045616 0.639502 0.368022 14.232612 12.568263 0.000000 0.000000 0.000000 -15.163283 -12.817755 34.004455 0.000004 41.556899 -0.000006 0.000000 0.000000 0.000000 
-17.961254 14.516567 -70.666832 0.000000 0.000000 0.000000 -105.598686 23.785024 8.579846 -49.713467 1.835870 38.852244 57.516791 9.561858 3.236752 35.324683 0.950263 -5.442272 0.454309 -0.000010 0.000002 0.000000 0.000000 0.000000 -105.598686 23.785024 8.579846 -21.116076 12.258553 -37.539802 97.329936 6.963775 3.171019 20.662318 -0.734344 31.124356 0.000012 0.000009 0.000003 0.000000 0.000000 0.000000 -105.598686 23.785024 8.579846 53.042313 12.719533 -0.417273 21.192028 3.289829 0.753248 0.000000 0.000000 0.000000 0.000000 0.000000 0.000000 21.312752 2.716138 0.941960 5.822420 0.265670 -2.893472 26.499329 -3.586464 -3.784532 0.000000 0.000000 0.000000 21.312752 2.716138 0.941960 0.548373 -8.140329 -12.910341 0.000000 0.000000 0.000000 -10.892216 -23.869734 -15.235360 0.000018 -61.758304 0.000018 0.000000 0.000000 0.000000 21.312752 2.716138 0.941960 0.431947 14.333478 11.516034 0.000000 0.000000 0.000000 -2.584128 -5.159815 32.975935 0.000000 35.399504 0.000002 0.000000 0.000000 0.000000 
-18.255238 15.488941 -73.061317 0.000000 0.000000 0.000000 -114.426521 23.831937 9.388266 -42.198206 1.258616 42.704300 54.779425 7.752476 4.898602 33.332576 -1.454552 -9.066333 0.434275 -0.000002 0.000004 0.000000 0.000000 0.000000 -114.426521 23.831937 9.388266 -12.706837 12.178784 -34.426790 96.397137 5.081883 -0.234365 19.705731 -1.641591 28.770369 0.000007 -0.000006 -0.000002 0.000000 0.000000 0.000000 -114.426521 23.831937 9.388266 49.966778 11.340318 1.338338 19.813021 2.537993 0.647778 0.000000 0.000000 0.000000 0.000000 0.000000 0.000000 19.912481 1.937060 0.895211 6.495162 0.264973 -2.706696 31.372360 -4.092079 -3.476025 0.000000 0.000000 0.000000 19.912481 1.937060 0.895211 0.492895 -8.977882 -12.094587 0.000000 0.000000 0.000000 -7.279208 -22.558966 -16.271232 0.000071 -57.917689 0.000066 0.000000 0.000000 0.000000 19.912481 1.937060 0.895211 0.434024 12.961614 11.430409 0.000000 0.000000 0.000000 9.841229 6.566304 32.310138 0.000002 26.820058 -0.000003 0.000000 0.000000 0.000000 
-19.000830 16.986488 -75.023651 0.000000 0.000000 0.000000 -120.700289 24.398814 9.766218 -37.774430 0.496832 48.186715 52.925988 6.061804 5.692059 29.252317 -2.274560 -13.500448 0.068465 -0.000005 0.000002 0.000000 0.000000 0.000000 -120.700289 24.398814 9.766218 -7.624758 12.608394 -32.695900 96.837015 5.117080 -1.834610 18.151262 -0.135877 24.368810 0.000002 -0.000001 0.000011 0.000000 0.000000 0.000000 -120.700289 24.398814 9.766218 44.956630 8.150651 1.773296 17.311034 1.411756 -0.146468 0.000000 0.000000 0.000000 0.000000 0.000000 0.000000 17.369914 0.817396 0.168538 7.139812 0.269605 -2.399116 34.588471 -3.638914 -4.542986 0.000000 0.000000 0.000000 17.369914 0.817396 0.168538 0.538454 -9.973102 -9.961844 0.000000 0.000000 0.000000 -3.179592 -18.500629 -19.681801 0.000023 -55.463755 0.000024 0.000000 0.000000 0.000000 17.369914 0.817396 0.168538 0.438110 10.094230 11.981956 0.000000 0.000000 0.000000 21.216511 15.450159 31.864769 0.000002 25.231581 -0.000001 0.000000 0.000000 0.000000 
-19.991697 18.701927 -76.949020 0.000000 0.000000 0.000000 -123.676175 24.900235 10.100947 -37.326516 0.257917 51.692955 50.383703 6.771062 6.297600 26.704245 -3.259061 -16.037829 -0.621990 -0.000012 -0.000030 0.000000 0.000000 0.000000 -123.676175 24.900235 10.100947 -6.839349 14.074021 -31.913168 99.024260 6.545533 -2.523588 16.707838 0.820016 20.281629 0.000003 0.000000 -0.000002 0.000000 0.000000 0.000000 -123.676175 24.900235 10.100947 39.478913 2.903854 0.886666 14.118080 -0.180338 -1.277129 0.000000 0.000000 0.000000 0.000000 0.000000 0.000000 14.128690 -0.681858 -0.833137 6.875292 0.288304 -2.238477 31.259344 -1.895434 -7.919925 0.000000 0.000000 0.000000 14.128690 -0.681858 -0.833137 0.729422 -10.066529 -6.844013 0.000000 0.000000 0.000000 3.604225 -12.342452 -23.306088 -0.000016 -54.455893 0.000004 0.000000 0.000000 0.000000 14.128690 -0.681858 -0.833137 0.480505 7.258791 12.643925 0.000000 0.000000 0.000000 32.452992 15.591064 29.432187 -0.000001 37.029929 0.000000 0.000000 0.000000 0.000000 
-20.919436 20.260338 -79.172432 0.000000 0.000000 0.000000 -124.445282 24.832478 10.612425 -37.686371 0.814713 53.975857 47.424076 7.061734 6.512692 24.578455 -3.990541 -18.230014 -1.267030 0.000017 0.000020 0.000000 0.000000 0.000000 -124.445282 24.832478 10.612425 -8.422871 17.186030 -32.523049 101.573519 7.650222 -2.365295 17.047893 1.454495 17.733246 0.000006 -0.000005 0.000006 0.000000 0.000000 0.000000 -124.445282 24.832478 10.612425 35.599322 -4.054425 0.102137 10.455374 -2.226719 -1.860080 0.000000 0.000000 0.000000 0.000000 0.000000 0.000000 10.459587 -2.460439 -1.279201 5.112233 0.314758 -2.297883 23.206290 1.302364 -12.412896 0.000000 0.000000 0.000000 10.459587 -2.460439 -1.279201 0.775704 -8.019506 -4.185685 0.000000 0.000000 0.000000 12.943465 -8.407549 -26.998671 -0.000012 -51.131981 -0.000022 0.000000 0.000000 0.000000 10.459587 -2.460439 -1.279201 0.515198 5.927067 12.555223 0.000000 0.000000 0.000000 41.941081 8.748263 25.772734 0.000002 54.265843 -0.000000 0.000000 0.000000 0.000000 
-21.796467 21.369453 -81.615616 0.000000 0.000000 0.000000 -124.825532 23.911565 11.063536 -37.430851 1.147068 55.417177 45.057310 5.860652 6.823175 21.836227 -3.170744 -17.188485 -1.505974 0.000011 -0.000017 0.000000 0.000000 0.000000 -124.825532 23.911565 11.063536 -11.139016 20.417056 -32.379895 103.756345 8.389254 -2.184963 18.601026 1.556973 16.283063 -0.000006 0.000001 -0.000003 0.000000 0.000000 0.000000 -124.825532 23.911565 11.063536 34.150331 -10.581031 -0.117182 7.362518 -4.170629 -1.996041 0.000000 0.000000 0.000000 0.000000 0.000000 0.000000 7.441936 -4.172572 -1.391699 1.854000 0.307515 -2.507342 16.203005 5.189365 -15.673771 0.000000 0.000000 0.000000 7.441936 -4.172572 -1.391699 0.493301 -4.111473 -3.209715 0.000000 0.000000 0.000000 22.577643 -7.877756 -27.817761 -0.000016 -46.496584 -0.000019 0.000000 0.000000 0.000000 7.441936 -4.172572 -1.391699 0.546262 5.769550 11.209263 0.000000 0.000000 0.000000 48.002126 2.618950 23.644855 -0.000007 64.875992 0.000003 0.000000 0.000000 0.000000 
